PathFileType	3	(X/Y/Z)	RCH0000002 BBF 07.c3d
DataRate	CameraRate	NumFrames	NumMarkers	Units	OrigDataRate	OrigDataStartFrame	OrigNumFrames
100.0	100.0	14	23	mm	100.0	323	452
Frame#	Time	T2			T10			MAN			LASI			RASI			RPSI			LPAT			LKNE			LANK			LMED			LHEE			LTOE			RPAT			RKNE			RANK			RMED			RHEE			RTOE			LPSI			RTHI			LTHI			RTIB			LTIB			
		X1	Y1	Z1	X2	Y2	Z2	X3	Y3	Z3	X4	Y4	Z4	X5	Y5	Z5	X6	Y6	Z6	X7	Y7	Z7	X8	Y8	Z8	X9	Y9	Z9	X10	Y10	Z10	X11	Y11	Z11	X12	Y12	Z12	X13	Y13	Z13	X14	Y14	Z14	X15	Y15	Z15	X16	Y16	Z16	X17	Y17	Z17	X18	Y18	Z18	X19	Y19	Z19	X20	Y20	Z20	X21	Y21	Z21	X22	Y22	Z22	X23	Y23	Z23	

323	3.220	577.72240	-84.83076	965.52677	585.12336	-105.45955	780.02645	709.76631	-75.82835	936.44050	647.46452	13.06361	646.62496	702.67741	-155.37523	627.96945	578.75193	-144.61174	674.72605	578.67618	-14.38180	362.69010	517.80058	37.45598	343.13572	396.69315	34.23720	90.48390	409.68980	-33.37631	109.99059	370.36621	-5.95556	133.94151	444.04168	-0.11810	71.49203	820.64179	-80.33219	406.56183	799.33280	-140.46064	359.48885	767.12590	-188.12226	97.39041	743.07348	-122.17363	97.14997	714.47694	-164.15103	123.18643	803.53782	-145.79022	84.44057	559.64762	-78.73238	685.99380	772.51818	-214.85911	464.81208	544.61844	101.61212	468.33527	798.13801	-224.74731	259.99011	456.03993	100.87600	237.73992	
324	3.230	590.10012	-86.90942	963.01706	598.04821	-105.74892	777.66562	722.39218	-77.30616	934.78325	660.10502	12.97731	643.97563	715.43362	-155.39782	626.25453	591.47951	-144.67614	672.86825	590.71470	-14.98900	359.40344	529.45594	36.57406	340.63018	400.80325	34.20803	92.51783	413.74132	-33.53607	111.42197	375.81288	-5.89694	136.83556	446.85610	-0.43891	71.70798	829.90865	-78.70485	401.86245	809.50285	-139.89674	355.35331	780.53458	-189.73956	92.56567	755.06673	-124.19999	92.35017	726.96642	-166.76880	117.85889	816.38695	-146.66400	80.81460	572.31631	-78.72783	683.55515	784.68261	-213.87359	461.39139	556.61087	100.91723	465.67915	811.04408	-224.73862	255.78388	465.35159	100.25182	237.28614	
325	3.240	602.47965	-89.02443	960.62948	611.25330	-105.79540	775.42171	735.02560	-78.70199	933.42307	673.09170	12.79746	641.18634	728.32713	-155.56098	624.91380	604.40462	-144.59526	671.45439	603.91827	-15.95924	355.87100	542.38764	35.40172	337.73179	405.95821	34.14641	94.79295	418.57582	-33.75750	113.02290	382.33693	-5.77775	139.99209	450.38642	-0.93060	72.02986	838.90692	-77.52919	396.98863	819.06362	-139.70091	351.13696	790.86658	-191.54247	88.26796	764.20693	-126.33574	88.30640	736.74912	-169.43227	113.46305	826.16448	-147.80477	77.52959	585.20715	-78.53264	681.26519	796.52237	-213.24811	457.94361	569.53916	99.96121	462.68254	822.23019	-224.99059	251.69353	476.18514	99.44602	236.60934	
326	3.250	614.83288	-91.09887	958.44150	624.66555	-105.57823	773.37731	747.63573	-79.97474	932.40352	686.34379	12.50112	638.32834	741.27396	-155.88768	624.03146	617.44065	-144.36809	670.55905	618.21754	-17.30085	352.18128	556.52999	33.95036	334.51598	412.26115	34.04831	97.30143	424.29765	-34.03898	114.80158	390.02118	-5.60314	143.38125	454.75931	-1.57895	72.49120	847.65737	-76.95959	392.23462	828.02792	-139.95835	347.08484	798.40499	-193.47216	84.60256	770.79854	-128.51750	85.11488	744.08174	-172.06807	110.07091	833.18047	-149.16845	74.68837	598.23833	-78.15074	679.20341	807.94661	-213.09340	454.66086	583.35092	98.74172	459.42654	831.76829	-225.56349	247.86558	488.51597	98.46314	235.73427	
327	3.260	627.13130	-93.05366	956.53468	638.20545	-105.08842	771.61992	760.19042	-81.08407	931.76743	699.77924	12.06516	635.49198	754.19184	-156.39926	623.68216	630.50499	-144.00161	670.24818	633.51284	-19.00871	348.45907	571.78132	32.23926	331.09916	419.78867	33.89771	100.03541	431.01475	-34.39007	116.76061	398.92237	-5.40518	146.96401	460.10826	-2.36358	73.13206	856.13519	-77.12399	387.85779	836.37793	-140.74379	343.41517	803.56188	-195.46823	81.62798	775.24677	-130.69140	82.81459	749.32674	-174.62553	107.68511	837.85643	-150.69559	72.35414	611.33414	-77.59589	677.45811	818.85716	-213.50270	451.71817	597.96970	97.26520	456.02891	839.78487	-226.51006	244.41495	502.25419	97.30422	234.72568	
328	3.270	639.34686	-94.81269	954.99064	651.79186	-104.33090	770.23678	772.65702	-81.99284	931.55517	713.31949	11.46912	632.78362	767.00704	-157.11197	623.92440	643.52584	-143.51279	670.57379	649.68310	-21.05908	344.86045	588.01151	30.29767	327.63399	428.58702	33.66729	102.98630	438.83672	-34.83085	118.89378	409.06856	-5.24296	150.69230	466.57035	-3.25798	73.99514	864.27567	-78.10612	384.05537	844.07160	-142.11216	340.30141	806.82474	-197.47600	79.35244	778.00981	-132.81766	81.38589	752.90513	-177.07969	106.24242	840.67614	-152.32038	70.54747	624.43022	-76.89364	676.12133	829.16425	-214.53765	449.25995	613.29723	95.54904	452.64035	846.44287	-227.86762	241.41930	517.24991	95.96925	233.68949	
329	3.280	651.45302	-96.30793	953.88605	665.34675	-103.32568	769.30875	785.00350	-82.66954	931.80226	726.89342	10.69824	630.32019	779.65998	-158.03386	624.79457	656.44724	-142.92942	671.56915	666.59577	-23.40526	341.56328	605.07070	28.16619	324.29994	438.67107	33.31938	106.14240	447.87210	-35.39091	121.18262	420.45951	-5.20053	154.50869	474.28157	-4.23119	75.12019	871.98458	-79.93258	380.95095	851.05212	-144.09018	337.86102	808.69677	-199.45093	77.73749	779.54884	-134.87095	80.75650	755.24516	-179.42755	105.62541	842.13282	-153.97892	69.24952	637.47702	-76.08180	675.28236	838.79983	-216.21780	447.38953	629.21613	93.62293	449.43616	851.91867	-229.65146	238.91799	533.30375	94.46004	232.76750	
330	3.290	663.42603	-97.48430	953.28737	678.79947	-102.10774	768.90405	797.19986	-83.09050	932.53623	740.44013	9.74619	628.22167	792.10888	-159.16249	626.30259	669.23187	-142.28935	673.24491	684.11676	-25.97517	338.75402	622.79860	25.89719	321.28977	450.02683	32.80702	109.48508	458.22492	-36.10790	123.59363	433.07064	-5.38241	158.34600	483.37079	-5.25147	76.53754	879.15171	-82.56745	378.59243	857.25910	-146.67028	336.15208	809.64254	-201.35893	76.70804	780.28472	-136.83642	80.81370	756.73666	-181.67807	105.68027	842.68212	-155.61489	68.41019	650.44109	-75.20892	675.02042	847.72622	-218.51600	446.16305	645.59346	91.52927	446.60361	856.37929	-231.85048	236.91553	550.18233	92.78256	232.12517	
331	3.300	675.24640	-98.30368	953.24566	692.08997	-100.72527	769.07238	809.21983	-83.24165	933.77319	753.91032	8.61705	626.60199	804.33106	-160.48382	628.42966	681.86112	-141.63776	675.58673	702.11948	-28.67168	336.61226	641.03419	23.55361	318.79321	462.61723	32.07556	112.98424	469.99036	-37.02562	126.07728	446.85990	-5.90622	162.12760	493.95279	-6.29130	78.26178	885.66589	-85.91509	376.96088	862.63988	-149.80788	335.17743	810.04807	-203.17286	76.16688	780.56754	-138.70266	81.42061	757.69878	-183.83894	106.23794	842.70764	-157.18145	67.95939	663.30415	-74.33075	675.39728	855.93911	-221.36032	445.58811	662.28543	89.32231	444.32620	859.96474	-234.42567	235.38915	567.63764	90.94819	231.93330	
332	3.310	686.90026	-98.74778	953.79212	705.17073	-99.23642	769.84021	821.04246	-83.11985	935.51440	767.26662	7.32632	625.55939	816.32171	-161.97252	631.12853	694.33251	-141.02279	678.55447	720.49233	-31.37613	335.29490	659.62527	21.20639	316.97985	476.39056	31.06515	116.59429	483.24956	-38.19111	128.56960	461.77656	-6.89245	165.76922	506.12099	-7.33303	80.28694	891.42981	-89.83083	375.98735	867.15996	-153.42284	334.89447	810.20007	-204.86737	76.01079	780.66196	-140.45416	82.43370	758.36471	-185.90428	107.13498	842.50271	-158.64033	67.81898	676.06023	-73.50483	676.45040	863.46511	-224.64190	445.62737	679.14372	87.06601	442.76635	862.77906	-237.31164	234.29855	585.42871	88.97327	232.34569	
333	3.320	698.38055	-98.81952	954.93482	718.00720	-97.70484	771.20761	832.65377	-82.73340	937.74325	780.48273	5.90072	625.16713	828.09054	-163.59360	634.32614	706.65517	-140.49001	682.08307	739.14408	-33.95545	334.92200	678.43758	18.93026	315.98317	491.29019	29.71488	120.25197	498.06376	-39.65061	130.99689	477.77005	-8.45156	169.18277	519.94075	-8.37382	82.58411	896.37330	-94.13746	375.57340	870.81165	-157.40500	335.22828	810.28443	-206.41443	76.14511	780.74733	-142.06621	83.71877	758.88335	-187.84709	108.23089	842.26804	-159.95965	67.91332	688.71149	-72.78398	678.18753	870.35554	-228.22703	446.20635	696.02352	84.83065	442.04876	864.89154	-240.42128	233.59606	603.34361	86.87743	233.47619	
334	3.330	709.68789	-98.54276	956.65694	730.57693	-96.19445	773.14700	844.04795	-82.10190	940.42318	793.54195	4.37680	625.46574	839.65674	-165.30496	637.92820	718.84386	-140.07653	686.08490	758.00684	-36.27248	335.56623	697.36303	16.79847	315.88795	507.26385	27.96895	123.87688	514.46815	-41.44410	133.28316	494.79702	-10.66956	172.28223	535.44418	-9.42819	85.10235	900.46387	-98.64489	375.61064	873.62006	-161.62355	336.08523	810.40022	-207.78177	76.49408	780.92928	-143.50403	85.16322	759.33393	-189.61920	109.41956	842.12227	-161.11221	68.17706	701.26347	-72.20974	680.58307	876.67842	-231.97117	447.22428	712.79291	82.68848	442.24655	866.34670	-243.65321	233.23481	621.21937	84.68124	235.37926	
335	3.340	720.83094	-97.96049	958.91665	742.86769	-94.76391	775.60396	855.22816	-81.25532	943.49663	806.43529	2.79850	626.45772	851.04315	-167.06071	641.82520	730.91275	-139.80573	690.45326	777.03660	-38.19882	337.24732	716.32639	14.87685	316.72248	524.27096	25.78474	127.37538	532.46639	-43.59885	135.35911	512.82517	-13.59356	174.99098	552.62754	-10.52729	87.77242	903.71362	-103.16999	375.99585	875.64599	-165.93906	337.36494	810.58299	-208.93516	77.00549	781.25770	-144.72677	86.68304	759.74823	-191.15851	110.63346	842.12048	-162.07540	68.55916	713.72040	-71.80662	683.57684	882.51041	-235.73291	448.56655	729.34300	80.70867	443.37219	867.18011	-246.90122	233.17352	638.95776	82.40443	238.03766	
336	3.350	731.82617	-97.13156	961.64867	754.87494	-93.46173	778.49988	866.20672	-80.23229	946.88558	819.15947	1.21390	628.10535	862.27039	-168.81467	645.89902	742.86964	-139.68333	695.06687	796.21145	-39.62876	339.93203	735.28973	13.21803	318.45675	542.28716	23.14204	130.64707	552.02683	-46.12271	137.17064	531.83327	-17.21979	177.24903	571.45181	-11.71427	90.51300	906.18186	-107.55407	376.63981	876.98504	-170.21654	338.96915	810.83112	-209.84397	77.64958	781.74654	-145.69545	88.22431	760.13426	-192.40179	111.84121	842.27576	-162.83310	69.02344	726.08141	-71.57828	687.07524	887.93005	-239.38606	450.11698	745.59758	78.95205	445.37450	867.43548	-250.06464	233.37740	656.53505	80.06582	241.36000	
